<svg xmlns="http://www.w3.org/2000/svg" viewBox="0 0 40 40" fill="none">
  <rect width="40" height="40" fill="#1d3c30"/>
  <g fill="#f5f3ed" stroke="#f5f3ed" stroke-width=".65" stroke-linejoin="round">
    <path d="M20 5.3c1.5 0 2.7 3.7 2.7 6.2 0 2.2-1.2 3.8-2.7 3.8s-2.7-1.6-2.7-3.8c0-2.5 1.2-6.2 2.7-6.2Z"/>
    <path d="M9.8 11.2c.8-1.3 4.5-.3 6.7.9 1.9 1.1 2.7 3 1.9 4.3-.8 1.3-2.9 1.5-4.8.4-2.2-1.2-4.6-4.3-3.8-5.6Z"/>
    <path d="M30.2 11.2c-.8-1.3-4.5-.3-6.7.9-1.9 1.1-2.7 3-1.9 4.3.8 1.3 2.9 1.5 4.8.4 2.2-1.2 4.6-4.3 3.8-5.6Z"/>
    <path d="M12 23.6c-1.5-.1-2.5-3.8-2.4-6.3.1-2.2 1.4-3.7 2.9-3.6 1.5.1 2.6 1.8 2.4 4-.1 2.5-1.4 6-2.9 5.9Z"/>
    <path d="M28 23.6c1.5-.1 2.5-3.8 2.4-6.3-.1-2.2-1.4-3.7-2.9-3.6-1.5.1-2.6 1.8-2.4 4 .1 2.5 1.4 6 2.9 5.9Z"/>
  </g>
  <circle cx="20" cy="16.2" r="2.1" fill="#d98259"/>
  <path d="M8 25.5c4.7-.7 8.5.5 12 3.2 3.5-2.7 7.3-3.9 12-3.2v8.2c-4.8-.7-8.7.3-12 2.3-3.3-2-7.2-3-12-2.3v-8.2Z" fill="#f5f3ed"/>
  <path d="M20 28.7v8.1" stroke="#d98259" stroke-width="1.1"/>
  <path d="M10.5 28.4c2.9-.2 5.1.4 7.3 1.6M29.5 28.4c-2.9-.2-5.1.4-7.3 1.6" stroke="#829b7c" stroke-width=".8" stroke-linecap="round"/>
</svg>
